<svg width="206" height="45" viewBox="0 0 206 45" fill="none" xmlns="http://www.w3.org/2000/svg">
<path d="M50.5637 45H78.5436C88.5527 45 85.3452 40.5608 85.3452 32.5946C85.3452 27.4865 82.9055 24.0203 78.3388 22.5608C82.5301 20.7973 84.7822 17.2703 84.7822 12.4662C84.7822 4.74324 79.1521 0 69.8311 0H50.5637V45ZM68.7677 8.63513C72.4585 8.63513 74.3978 10.277 74.3978 13.4392C74.3978 16.6622 72.396 18.4257 68.7677 18.4257H60.6979V8.63513H68.7677ZM69.2681 26.6959C72.959 26.6959 74.9608 28.3378 74.9608 31.3784C74.9608 34.723 73.0215 36.3649 69.2681 36.3649H60.6979V26.6959H69.2681Z" fill="#133300"/>
<path d="M89.1157 45L92.4312 35.5135H107.382L110.635 45H121.395L104.943 0H95.0586L78.5436 45H89.1157ZM98.6869 17.6351C99.2499 15.9932 99.7504 14.2905 99.938 13.2568C100.126 14.3514 100.689 16.1149 101.189 17.6351L104.505 27.2432H95.3714L98.6869 17.6351Z" fill="#133300"/>
<path d="M128.159 0H118.025V45H146.425V35.8784H128.159V0Z" fill="#133300"/>
<path d="M154.162 0H144.027V45H172.428V35.8784H154.162V0Z" fill="#133300"/>
<path d="M180.164 45V29.25H187.984L194.927 45H206L197.868 27.1216C202.997 24.5676 205.562 20.4324 205.562 14.5946C205.562 5.29054 199.181 0 187.921 0H170.03V45H180.164ZM180.164 8.75676H187.921C192.425 8.75676 194.865 10.8243 194.865 14.5946C194.865 18.4257 192.3 20.6149 187.859 20.6149H180.164V8.75676Z" fill="#133300"/>
<path fill-rule="evenodd" clip-rule="evenodd" d="M22.4727 5C12.8195 5 4.99394 12.835 4.99394 22.5C4.99394 24.2111 5.2392 25.8647 5.69646 27.4278L27.3945 5.70337C25.8334 5.24556 24.1817 5 22.4727 5ZM32.2029 7.96018L7.95053 32.242C9.42502 34.441 11.3846 36.2866 13.6757 37.6253L37.5797 13.6923C36.2426 11.3984 34.3993 9.43645 32.2029 7.96018ZM39.5567 18.784L18.7613 39.6047C19.9574 39.8636 21.1992 40 22.4727 40C32.126 40 39.9515 32.165 39.9515 22.5C39.9515 21.2249 39.8153 19.9817 39.5567 18.784ZM0 22.5C0 10.0736 10.0614 0 22.4727 0C34.8841 0 44.9455 10.0736 44.9455 22.5C44.9455 34.9264 34.8841 45 22.4727 45C10.0614 45 0 34.9264 0 22.5Z" fill="#133300"/>
</svg>
